<?xml version="1.0" encoding="UTF-8" ?>
<svg version="1.1" width="64" height="64" xmlns="http://www.w3.org/2000/svg" shape-rendering="crispEdges">
<rect x="27" y="9" width="1" height="1" fill="#000000" />
<rect x="28" y="9" width="1" height="1" fill="#000000" />
<rect x="29" y="9" width="1" height="1" fill="#000000" />
<rect x="30" y="9" width="1" height="1" fill="#000000" />
<rect x="31" y="9" width="1" height="1" fill="#000000" />
<rect x="32" y="9" width="1" height="1" fill="#000000" />
<rect x="33" y="9" width="1" height="1" fill="#000000" />
<rect x="34" y="9" width="1" height="1" fill="#000000" />
<rect x="35" y="9" width="1" height="1" fill="#000000" />
<rect x="36" y="9" width="1" height="1" fill="#000000" />
<rect x="24" y="10" width="1" height="1" fill="#000000" />
<rect x="25" y="10" width="1" height="1" fill="#000000" />
<rect x="26" y="10" width="1" height="1" fill="#000000" />
<rect x="27" y="10" width="1" height="1" fill="#63C446" />
<rect x="28" y="10" width="1" height="1" fill="#63C446" />
<rect x="29" y="10" width="1" height="1" fill="#63C446" />
<rect x="30" y="10" width="1" height="1" fill="#63C446" />
<rect x="31" y="10" width="1" height="1" fill="#63C446" />
<rect x="32" y="10" width="1" height="1" fill="#63C446" />
<rect x="33" y="10" width="1" height="1" fill="#63C446" />
<rect x="34" y="10" width="1" height="1" fill="#63C446" />
<rect x="35" y="10" width="1" height="1" fill="#63C446" />
<rect x="36" y="10" width="1" height="1" fill="#63C446" />
<rect x="37" y="10" width="1" height="1" fill="#000000" />
<rect x="38" y="10" width="1" height="1" fill="#000000" />
<rect x="39" y="10" width="1" height="1" fill="#000000" />
<rect x="22" y="11" width="1" height="1" fill="#000000" />
<rect x="23" y="11" width="1" height="1" fill="#000000" />
<rect x="24" y="11" width="1" height="1" fill="#63C446" />
<rect x="25" y="11" width="1" height="1" fill="#63C446" />
<rect x="26" y="11" width="1" height="1" fill="#63C446" />
<rect x="27" y="11" width="1" height="1" fill="#63C446" />
<rect x="28" y="11" width="1" height="1" fill="#63C446" />
<rect x="29" y="11" width="1" height="1" fill="#63C446" />
<rect x="30" y="11" width="1" height="1" fill="#63C446" />
<rect x="31" y="11" width="1" height="1" fill="#63C446" />
<rect x="32" y="11" width="1" height="1" fill="#63C446" />
<rect x="33" y="11" width="1" height="1" fill="#63C446" />
<rect x="34" y="11" width="1" height="1" fill="#63C446" />
<rect x="35" y="11" width="1" height="1" fill="#63C446" />
<rect x="36" y="11" width="1" height="1" fill="#63C446" />
<rect x="37" y="11" width="1" height="1" fill="#63C446" />
<rect x="38" y="11" width="1" height="1" fill="#63C446" />
<rect x="39" y="11" width="1" height="1" fill="#63C446" />
<rect x="40" y="11" width="1" height="1" fill="#000000" />
<rect x="41" y="11" width="1" height="1" fill="#000000" />
<rect x="20" y="12" width="1" height="1" fill="#000000" />
<rect x="21" y="12" width="1" height="1" fill="#000000" />
<rect x="22" y="12" width="1" height="1" fill="#63C446" />
<rect x="23" y="12" width="1" height="1" fill="#63C446" />
<rect x="24" y="12" width="1" height="1" fill="#63C446" />
<rect x="25" y="12" width="1" height="1" fill="#63C446" />
<rect x="26" y="12" width="1" height="1" fill="#63C446" />
<rect x="27" y="12" width="1" height="1" fill="#63C446" />
<rect x="28" y="12" width="1" height="1" fill="#000000" />
<rect x="29" y="12" width="1" height="1" fill="#000000" />
<rect x="30" y="12" width="1" height="1" fill="#000000" />
<rect x="31" y="12" width="1" height="1" fill="#000000" />
<rect x="32" y="12" width="1" height="1" fill="#000000" />
<rect x="33" y="12" width="1" height="1" fill="#000000" />
<rect x="34" y="12" width="1" height="1" fill="#000000" />
<rect x="35" y="12" width="1" height="1" fill="#000000" />
<rect x="36" y="12" width="1" height="1" fill="#63C446" />
<rect x="37" y="12" width="1" height="1" fill="#63C446" />
<rect x="38" y="12" width="1" height="1" fill="#63C446" />
<rect x="39" y="12" width="1" height="1" fill="#63C446" />
<rect x="40" y="12" width="1" height="1" fill="#63C446" />
<rect x="41" y="12" width="1" height="1" fill="#63C446" />
<rect x="42" y="12" width="1" height="1" fill="#000000" />
<rect x="43" y="12" width="1" height="1" fill="#000000" />
<rect x="19" y="13" width="1" height="1" fill="#000000" />
<rect x="20" y="13" width="1" height="1" fill="#63C446" />
<rect x="21" y="13" width="1" height="1" fill="#63C446" />
<rect x="22" y="13" width="1" height="1" fill="#63C446" />
<rect x="23" y="13" width="1" height="1" fill="#63C446" />
<rect x="24" y="13" width="1" height="1" fill="#63C446" />
<rect x="25" y="13" width="1" height="1" fill="#000000" />
<rect x="26" y="13" width="1" height="1" fill="#000000" />
<rect x="27" y="13" width="1" height="1" fill="#000000" />
<rect x="36" y="13" width="1" height="1" fill="#000000" />
<rect x="37" y="13" width="1" height="1" fill="#000000" />
<rect x="38" y="13" width="1" height="1" fill="#000000" />
<rect x="39" y="13" width="1" height="1" fill="#63C446" />
<rect x="40" y="13" width="1" height="1" fill="#63C446" />
<rect x="41" y="13" width="1" height="1" fill="#63C446" />
<rect x="42" y="13" width="1" height="1" fill="#63C446" />
<rect x="43" y="13" width="1" height="1" fill="#63C446" />
<rect x="44" y="13" width="1" height="1" fill="#000000" />
<rect x="17" y="14" width="1" height="1" fill="#000000" />
<rect x="18" y="14" width="1" height="1" fill="#000000" />
<rect x="19" y="14" width="1" height="1" fill="#63C446" />
<rect x="20" y="14" width="1" height="1" fill="#63C446" />
<rect x="21" y="14" width="1" height="1" fill="#63C446" />
<rect x="22" y="14" width="1" height="1" fill="#63C446" />
<rect x="23" y="14" width="1" height="1" fill="#000000" />
<rect x="24" y="14" width="1" height="1" fill="#000000" />
<rect x="39" y="14" width="1" height="1" fill="#000000" />
<rect x="40" y="14" width="1" height="1" fill="#000000" />
<rect x="41" y="14" width="1" height="1" fill="#63C446" />
<rect x="42" y="14" width="1" height="1" fill="#63C446" />
<rect x="43" y="14" width="1" height="1" fill="#63C446" />
<rect x="44" y="14" width="1" height="1" fill="#63C446" />
<rect x="45" y="14" width="1" height="1" fill="#000000" />
<rect x="46" y="14" width="1" height="1" fill="#000000" />
<rect x="16" y="15" width="1" height="1" fill="#000000" />
<rect x="17" y="15" width="1" height="1" fill="#63C446" />
<rect x="18" y="15" width="1" height="1" fill="#63C446" />
<rect x="19" y="15" width="1" height="1" fill="#63C446" />
<rect x="20" y="15" width="1" height="1" fill="#63C446" />
<rect x="21" y="15" width="1" height="1" fill="#000000" />
<rect x="22" y="15" width="1" height="1" fill="#000000" />
<rect x="41" y="15" width="1" height="1" fill="#000000" />
<rect x="42" y="15" width="1" height="1" fill="#000000" />
<rect x="43" y="15" width="1" height="1" fill="#63C446" />
<rect x="44" y="15" width="1" height="1" fill="#63C446" />
<rect x="45" y="15" width="1" height="1" fill="#63C446" />
<rect x="46" y="15" width="1" height="1" fill="#63C446" />
<rect x="47" y="15" width="1" height="1" fill="#000000" />
<rect x="15" y="16" width="1" height="1" fill="#000000" />
<rect x="16" y="16" width="1" height="1" fill="#63C446" />
<rect x="17" y="16" width="1" height="1" fill="#63C446" />
<rect x="18" y="16" width="1" height="1" fill="#63C446" />
<rect x="19" y="16" width="1" height="1" fill="#63C446" />
<rect x="20" y="16" width="1" height="1" fill="#000000" />
<rect x="43" y="16" width="1" height="1" fill="#000000" />
<rect x="44" y="16" width="1" height="1" fill="#63C446" />
<rect x="45" y="16" width="1" height="1" fill="#63C446" />
<rect x="46" y="16" width="1" height="1" fill="#63C446" />
<rect x="47" y="16" width="1" height="1" fill="#63C446" />
<rect x="48" y="16" width="1" height="1" fill="#000000" />
<rect x="14" y="17" width="1" height="1" fill="#000000" />
<rect x="15" y="17" width="1" height="1" fill="#63C446" />
<rect x="16" y="17" width="1" height="1" fill="#63C446" />
<rect x="17" y="17" width="1" height="1" fill="#63C446" />
<rect x="18" y="17" width="1" height="1" fill="#000000" />
<rect x="19" y="17" width="1" height="1" fill="#000000" />
<rect x="44" y="17" width="1" height="1" fill="#000000" />
<rect x="45" y="17" width="1" height="1" fill="#000000" />
<rect x="46" y="17" width="1" height="1" fill="#63C446" />
<rect x="47" y="17" width="1" height="1" fill="#63C446" />
<rect x="48" y="17" width="1" height="1" fill="#63C446" />
<rect x="49" y="17" width="1" height="1" fill="#000000" />
<rect x="14" y="18" width="1" height="1" fill="#000000" />
<rect x="15" y="18" width="1" height="1" fill="#63C446" />
<rect x="16" y="18" width="1" height="1" fill="#63C446" />
<rect x="17" y="18" width="1" height="1" fill="#000000" />
<rect x="46" y="18" width="1" height="1" fill="#000000" />
<rect x="47" y="18" width="1" height="1" fill="#63C446" />
<rect x="48" y="18" width="1" height="1" fill="#63C446" />
<rect x="49" y="18" width="1" height="1" fill="#000000" />
<rect x="13" y="19" width="1" height="1" fill="#000000" />
<rect x="14" y="19" width="1" height="1" fill="#63C446" />
<rect x="15" y="19" width="1" height="1" fill="#63C446" />
<rect x="16" y="19" width="1" height="1" fill="#63C446" />
<rect x="17" y="19" width="1" height="1" fill="#000000" />
<rect x="46" y="19" width="1" height="1" fill="#000000" />
<rect x="47" y="19" width="1" height="1" fill="#63C446" />
<rect x="48" y="19" width="1" height="1" fill="#63C446" />
<rect x="49" y="19" width="1" height="1" fill="#63C446" />
<rect x="50" y="19" width="1" height="1" fill="#000000" />
<rect x="12" y="20" width="1" height="1" fill="#000000" />
<rect x="13" y="20" width="1" height="1" fill="#63C446" />
<rect x="14" y="20" width="1" height="1" fill="#63C446" />
<rect x="15" y="20" width="1" height="1" fill="#63C446" />
<rect x="16" y="20" width="1" height="1" fill="#000000" />
<rect x="47" y="20" width="1" height="1" fill="#000000" />
<rect x="48" y="20" width="1" height="1" fill="#63C446" />
<rect x="49" y="20" width="1" height="1" fill="#63C446" />
<rect x="50" y="20" width="1" height="1" fill="#63C446" />
<rect x="51" y="20" width="1" height="1" fill="#000000" />
<rect x="12" y="21" width="1" height="1" fill="#000000" />
<rect x="13" y="21" width="1" height="1" fill="#63C446" />
<rect x="14" y="21" width="1" height="1" fill="#63C446" />
<rect x="15" y="21" width="1" height="1" fill="#000000" />
<rect x="48" y="21" width="1" height="1" fill="#000000" />
<rect x="49" y="21" width="1" height="1" fill="#63C446" />
<rect x="50" y="21" width="1" height="1" fill="#63C446" />
<rect x="51" y="21" width="1" height="1" fill="#000000" />
<rect x="11" y="22" width="1" height="1" fill="#000000" />
<rect x="12" y="22" width="1" height="1" fill="#63C446" />
<rect x="13" y="22" width="1" height="1" fill="#63C446" />
<rect x="14" y="22" width="1" height="1" fill="#63C446" />
<rect x="15" y="22" width="1" height="1" fill="#000000" />
<rect x="48" y="22" width="1" height="1" fill="#000000" />
<rect x="49" y="22" width="1" height="1" fill="#63C446" />
<rect x="50" y="22" width="1" height="1" fill="#63C446" />
<rect x="51" y="22" width="1" height="1" fill="#63C446" />
<rect x="52" y="22" width="1" height="1" fill="#000000" />
<rect x="11" y="23" width="1" height="1" fill="#000000" />
<rect x="12" y="23" width="1" height="1" fill="#63C446" />
<rect x="13" y="23" width="1" height="1" fill="#63C446" />
<rect x="14" y="23" width="1" height="1" fill="#000000" />
<rect x="49" y="23" width="1" height="1" fill="#000000" />
<rect x="50" y="23" width="1" height="1" fill="#63C446" />
<rect x="51" y="23" width="1" height="1" fill="#63C446" />
<rect x="52" y="23" width="1" height="1" fill="#000000" />
<rect x="10" y="24" width="1" height="1" fill="#000000" />
<rect x="11" y="24" width="1" height="1" fill="#63C446" />
<rect x="12" y="24" width="1" height="1" fill="#63C446" />
<rect x="13" y="24" width="1" height="1" fill="#63C446" />
<rect x="14" y="24" width="1" height="1" fill="#000000" />
<rect x="49" y="24" width="1" height="1" fill="#000000" />
<rect x="50" y="24" width="1" height="1" fill="#63C446" />
<rect x="51" y="24" width="1" height="1" fill="#63C446" />
<rect x="52" y="24" width="1" height="1" fill="#63C446" />
<rect x="53" y="24" width="1" height="1" fill="#000000" />
<rect x="10" y="25" width="1" height="1" fill="#000000" />
<rect x="11" y="25" width="1" height="1" fill="#63C446" />
<rect x="12" y="25" width="1" height="1" fill="#63C446" />
<rect x="13" y="25" width="1" height="1" fill="#000000" />
<rect x="50" y="25" width="1" height="1" fill="#000000" />
<rect x="51" y="25" width="1" height="1" fill="#63C446" />
<rect x="52" y="25" width="1" height="1" fill="#63C446" />
<rect x="53" y="25" width="1" height="1" fill="#000000" />
<rect x="10" y="26" width="1" height="1" fill="#000000" />
<rect x="11" y="26" width="1" height="1" fill="#63C446" />
<rect x="12" y="26" width="1" height="1" fill="#63C446" />
<rect x="13" y="26" width="1" height="1" fill="#000000" />
<rect x="50" y="26" width="1" height="1" fill="#000000" />
<rect x="51" y="26" width="1" height="1" fill="#63C446" />
<rect x="52" y="26" width="1" height="1" fill="#63C446" />
<rect x="53" y="26" width="1" height="1" fill="#000000" />
<rect x="9" y="27" width="1" height="1" fill="#000000" />
<rect x="10" y="27" width="1" height="1" fill="#63C446" />
<rect x="11" y="27" width="1" height="1" fill="#63C446" />
<rect x="12" y="27" width="1" height="1" fill="#63C446" />
<rect x="13" y="27" width="1" height="1" fill="#000000" />
<rect x="50" y="27" width="1" height="1" fill="#000000" />
<rect x="51" y="27" width="1" height="1" fill="#63C446" />
<rect x="52" y="27" width="1" height="1" fill="#63C446" />
<rect x="53" y="27" width="1" height="1" fill="#63C446" />
<rect x="54" y="27" width="1" height="1" fill="#000000" />
<rect x="9" y="28" width="1" height="1" fill="#000000" />
<rect x="10" y="28" width="1" height="1" fill="#63C446" />
<rect x="11" y="28" width="1" height="1" fill="#63C446" />
<rect x="12" y="28" width="1" height="1" fill="#000000" />
<rect x="51" y="28" width="1" height="1" fill="#000000" />
<rect x="52" y="28" width="1" height="1" fill="#63C446" />
<rect x="53" y="28" width="1" height="1" fill="#63C446" />
<rect x="54" y="28" width="1" height="1" fill="#000000" />
<rect x="9" y="29" width="1" height="1" fill="#000000" />
<rect x="10" y="29" width="1" height="1" fill="#63C446" />
<rect x="11" y="29" width="1" height="1" fill="#63C446" />
<rect x="12" y="29" width="1" height="1" fill="#000000" />
<rect x="51" y="29" width="1" height="1" fill="#000000" />
<rect x="52" y="29" width="1" height="1" fill="#63C446" />
<rect x="53" y="29" width="1" height="1" fill="#63C446" />
<rect x="54" y="29" width="1" height="1" fill="#000000" />
<rect x="9" y="30" width="1" height="1" fill="#000000" />
<rect x="10" y="30" width="1" height="1" fill="#63C446" />
<rect x="11" y="30" width="1" height="1" fill="#63C446" />
<rect x="12" y="30" width="1" height="1" fill="#000000" />
<rect x="51" y="30" width="1" height="1" fill="#000000" />
<rect x="52" y="30" width="1" height="1" fill="#63C446" />
<rect x="53" y="30" width="1" height="1" fill="#63C446" />
<rect x="54" y="30" width="1" height="1" fill="#000000" />
<rect x="9" y="31" width="1" height="1" fill="#000000" />
<rect x="10" y="31" width="1" height="1" fill="#63C446" />
<rect x="11" y="31" width="1" height="1" fill="#63C446" />
<rect x="12" y="31" width="1" height="1" fill="#000000" />
<rect x="51" y="31" width="1" height="1" fill="#000000" />
<rect x="52" y="31" width="1" height="1" fill="#63C446" />
<rect x="53" y="31" width="1" height="1" fill="#63C446" />
<rect x="54" y="31" width="1" height="1" fill="#000000" />
<rect x="9" y="32" width="1" height="1" fill="#000000" />
<rect x="10" y="32" width="1" height="1" fill="#63C446" />
<rect x="11" y="32" width="1" height="1" fill="#63C446" />
<rect x="12" y="32" width="1" height="1" fill="#000000" />
<rect x="51" y="32" width="1" height="1" fill="#000000" />
<rect x="52" y="32" width="1" height="1" fill="#63C446" />
<rect x="53" y="32" width="1" height="1" fill="#63C446" />
<rect x="54" y="32" width="1" height="1" fill="#000000" />
<rect x="9" y="33" width="1" height="1" fill="#000000" />
<rect x="10" y="33" width="1" height="1" fill="#63C446" />
<rect x="11" y="33" width="1" height="1" fill="#63C446" />
<rect x="12" y="33" width="1" height="1" fill="#000000" />
<rect x="51" y="33" width="1" height="1" fill="#000000" />
<rect x="52" y="33" width="1" height="1" fill="#63C446" />
<rect x="53" y="33" width="1" height="1" fill="#63C446" />
<rect x="54" y="33" width="1" height="1" fill="#000000" />
<rect x="9" y="34" width="1" height="1" fill="#000000" />
<rect x="10" y="34" width="1" height="1" fill="#63C446" />
<rect x="11" y="34" width="1" height="1" fill="#63C446" />
<rect x="12" y="34" width="1" height="1" fill="#000000" />
<rect x="51" y="34" width="1" height="1" fill="#000000" />
<rect x="52" y="34" width="1" height="1" fill="#63C446" />
<rect x="53" y="34" width="1" height="1" fill="#63C446" />
<rect x="54" y="34" width="1" height="1" fill="#000000" />
<rect x="9" y="35" width="1" height="1" fill="#000000" />
<rect x="10" y="35" width="1" height="1" fill="#63C446" />
<rect x="11" y="35" width="1" height="1" fill="#63C446" />
<rect x="12" y="35" width="1" height="1" fill="#000000" />
<rect x="51" y="35" width="1" height="1" fill="#000000" />
<rect x="52" y="35" width="1" height="1" fill="#63C446" />
<rect x="53" y="35" width="1" height="1" fill="#63C446" />
<rect x="54" y="35" width="1" height="1" fill="#000000" />
<rect x="9" y="36" width="1" height="1" fill="#000000" />
<rect x="10" y="36" width="1" height="1" fill="#63C446" />
<rect x="11" y="36" width="1" height="1" fill="#63C446" />
<rect x="12" y="36" width="1" height="1" fill="#63C446" />
<rect x="13" y="36" width="1" height="1" fill="#000000" />
<rect x="50" y="36" width="1" height="1" fill="#000000" />
<rect x="51" y="36" width="1" height="1" fill="#63C446" />
<rect x="52" y="36" width="1" height="1" fill="#63C446" />
<rect x="53" y="36" width="1" height="1" fill="#63C446" />
<rect x="54" y="36" width="1" height="1" fill="#000000" />
<rect x="10" y="37" width="1" height="1" fill="#000000" />
<rect x="11" y="37" width="1" height="1" fill="#63C446" />
<rect x="12" y="37" width="1" height="1" fill="#63C446" />
<rect x="13" y="37" width="1" height="1" fill="#000000" />
<rect x="50" y="37" width="1" height="1" fill="#000000" />
<rect x="51" y="37" width="1" height="1" fill="#63C446" />
<rect x="52" y="37" width="1" height="1" fill="#63C446" />
<rect x="53" y="37" width="1" height="1" fill="#000000" />
<rect x="10" y="38" width="1" height="1" fill="#000000" />
<rect x="11" y="38" width="1" height="1" fill="#63C446" />
<rect x="12" y="38" width="1" height="1" fill="#63C446" />
<rect x="13" y="38" width="1" height="1" fill="#000000" />
<rect x="50" y="38" width="1" height="1" fill="#000000" />
<rect x="51" y="38" width="1" height="1" fill="#63C446" />
<rect x="52" y="38" width="1" height="1" fill="#63C446" />
<rect x="53" y="38" width="1" height="1" fill="#000000" />
<rect x="10" y="39" width="1" height="1" fill="#000000" />
<rect x="11" y="39" width="1" height="1" fill="#63C446" />
<rect x="12" y="39" width="1" height="1" fill="#63C446" />
<rect x="13" y="39" width="1" height="1" fill="#63C446" />
<rect x="14" y="39" width="1" height="1" fill="#000000" />
<rect x="49" y="39" width="1" height="1" fill="#000000" />
<rect x="50" y="39" width="1" height="1" fill="#63C446" />
<rect x="51" y="39" width="1" height="1" fill="#63C446" />
<rect x="52" y="39" width="1" height="1" fill="#63C446" />
<rect x="53" y="39" width="1" height="1" fill="#000000" />
<rect x="11" y="40" width="1" height="1" fill="#000000" />
<rect x="12" y="40" width="1" height="1" fill="#63C446" />
<rect x="13" y="40" width="1" height="1" fill="#63C446" />
<rect x="14" y="40" width="1" height="1" fill="#000000" />
<rect x="49" y="40" width="1" height="1" fill="#000000" />
<rect x="50" y="40" width="1" height="1" fill="#63C446" />
<rect x="51" y="40" width="1" height="1" fill="#63C446" />
<rect x="52" y="40" width="1" height="1" fill="#000000" />
<rect x="11" y="41" width="1" height="1" fill="#000000" />
<rect x="12" y="41" width="1" height="1" fill="#63C446" />
<rect x="13" y="41" width="1" height="1" fill="#63C446" />
<rect x="14" y="41" width="1" height="1" fill="#63C446" />
<rect x="15" y="41" width="1" height="1" fill="#000000" />
<rect x="48" y="41" width="1" height="1" fill="#000000" />
<rect x="49" y="41" width="1" height="1" fill="#63C446" />
<rect x="50" y="41" width="1" height="1" fill="#63C446" />
<rect x="51" y="41" width="1" height="1" fill="#63C446" />
<rect x="52" y="41" width="1" height="1" fill="#000000" />
<rect x="12" y="42" width="1" height="1" fill="#000000" />
<rect x="13" y="42" width="1" height="1" fill="#63C446" />
<rect x="14" y="42" width="1" height="1" fill="#63C446" />
<rect x="15" y="42" width="1" height="1" fill="#000000" />
<rect x="48" y="42" width="1" height="1" fill="#000000" />
<rect x="49" y="42" width="1" height="1" fill="#63C446" />
<rect x="50" y="42" width="1" height="1" fill="#63C446" />
<rect x="51" y="42" width="1" height="1" fill="#000000" />
<rect x="12" y="43" width="1" height="1" fill="#000000" />
<rect x="13" y="43" width="1" height="1" fill="#63C446" />
<rect x="14" y="43" width="1" height="1" fill="#63C446" />
<rect x="15" y="43" width="1" height="1" fill="#63C446" />
<rect x="16" y="43" width="1" height="1" fill="#000000" />
<rect x="47" y="43" width="1" height="1" fill="#000000" />
<rect x="48" y="43" width="1" height="1" fill="#63C446" />
<rect x="49" y="43" width="1" height="1" fill="#63C446" />
<rect x="50" y="43" width="1" height="1" fill="#63C446" />
<rect x="51" y="43" width="1" height="1" fill="#000000" />
<rect x="13" y="44" width="1" height="1" fill="#000000" />
<rect x="14" y="44" width="1" height="1" fill="#63C446" />
<rect x="15" y="44" width="1" height="1" fill="#63C446" />
<rect x="16" y="44" width="1" height="1" fill="#63C446" />
<rect x="17" y="44" width="1" height="1" fill="#000000" />
<rect x="46" y="44" width="1" height="1" fill="#000000" />
<rect x="47" y="44" width="1" height="1" fill="#63C446" />
<rect x="48" y="44" width="1" height="1" fill="#63C446" />
<rect x="49" y="44" width="1" height="1" fill="#63C446" />
<rect x="50" y="44" width="1" height="1" fill="#000000" />
<rect x="14" y="45" width="1" height="1" fill="#000000" />
<rect x="15" y="45" width="1" height="1" fill="#63C446" />
<rect x="16" y="45" width="1" height="1" fill="#63C446" />
<rect x="17" y="45" width="1" height="1" fill="#000000" />
<rect x="46" y="45" width="1" height="1" fill="#000000" />
<rect x="47" y="45" width="1" height="1" fill="#63C446" />
<rect x="48" y="45" width="1" height="1" fill="#63C446" />
<rect x="49" y="45" width="1" height="1" fill="#000000" />
<rect x="14" y="46" width="1" height="1" fill="#000000" />
<rect x="15" y="46" width="1" height="1" fill="#63C446" />
<rect x="16" y="46" width="1" height="1" fill="#63C446" />
<rect x="17" y="46" width="1" height="1" fill="#63C446" />
<rect x="18" y="46" width="1" height="1" fill="#000000" />
<rect x="19" y="46" width="1" height="1" fill="#000000" />
<rect x="44" y="46" width="1" height="1" fill="#000000" />
<rect x="45" y="46" width="1" height="1" fill="#000000" />
<rect x="46" y="46" width="1" height="1" fill="#63C446" />
<rect x="47" y="46" width="1" height="1" fill="#63C446" />
<rect x="48" y="46" width="1" height="1" fill="#63C446" />
<rect x="49" y="46" width="1" height="1" fill="#000000" />
<rect x="15" y="47" width="1" height="1" fill="#000000" />
<rect x="16" y="47" width="1" height="1" fill="#63C446" />
<rect x="17" y="47" width="1" height="1" fill="#63C446" />
<rect x="18" y="47" width="1" height="1" fill="#63C446" />
<rect x="19" y="47" width="1" height="1" fill="#63C446" />
<rect x="20" y="47" width="1" height="1" fill="#000000" />
<rect x="43" y="47" width="1" height="1" fill="#000000" />
<rect x="44" y="47" width="1" height="1" fill="#63C446" />
<rect x="45" y="47" width="1" height="1" fill="#63C446" />
<rect x="46" y="47" width="1" height="1" fill="#63C446" />
<rect x="47" y="47" width="1" height="1" fill="#63C446" />
<rect x="48" y="47" width="1" height="1" fill="#000000" />
<rect x="16" y="48" width="1" height="1" fill="#000000" />
<rect x="17" y="48" width="1" height="1" fill="#63C446" />
<rect x="18" y="48" width="1" height="1" fill="#63C446" />
<rect x="19" y="48" width="1" height="1" fill="#63C446" />
<rect x="20" y="48" width="1" height="1" fill="#63C446" />
<rect x="21" y="48" width="1" height="1" fill="#000000" />
<rect x="22" y="48" width="1" height="1" fill="#000000" />
<rect x="41" y="48" width="1" height="1" fill="#000000" />
<rect x="42" y="48" width="1" height="1" fill="#000000" />
<rect x="43" y="48" width="1" height="1" fill="#63C446" />
<rect x="44" y="48" width="1" height="1" fill="#63C446" />
<rect x="45" y="48" width="1" height="1" fill="#63C446" />
<rect x="46" y="48" width="1" height="1" fill="#63C446" />
<rect x="47" y="48" width="1" height="1" fill="#000000" />
<rect x="17" y="49" width="1" height="1" fill="#000000" />
<rect x="18" y="49" width="1" height="1" fill="#000000" />
<rect x="19" y="49" width="1" height="1" fill="#63C446" />
<rect x="20" y="49" width="1" height="1" fill="#63C446" />
<rect x="21" y="49" width="1" height="1" fill="#63C446" />
<rect x="22" y="49" width="1" height="1" fill="#63C446" />
<rect x="23" y="49" width="1" height="1" fill="#000000" />
<rect x="24" y="49" width="1" height="1" fill="#000000" />
<rect x="39" y="49" width="1" height="1" fill="#000000" />
<rect x="40" y="49" width="1" height="1" fill="#000000" />
<rect x="41" y="49" width="1" height="1" fill="#63C446" />
<rect x="42" y="49" width="1" height="1" fill="#63C446" />
<rect x="43" y="49" width="1" height="1" fill="#63C446" />
<rect x="44" y="49" width="1" height="1" fill="#63C446" />
<rect x="45" y="49" width="1" height="1" fill="#000000" />
<rect x="46" y="49" width="1" height="1" fill="#000000" />
<rect x="19" y="50" width="1" height="1" fill="#000000" />
<rect x="20" y="50" width="1" height="1" fill="#63C446" />
<rect x="21" y="50" width="1" height="1" fill="#63C446" />
<rect x="22" y="50" width="1" height="1" fill="#63C446" />
<rect x="23" y="50" width="1" height="1" fill="#63C446" />
<rect x="24" y="50" width="1" height="1" fill="#63C446" />
<rect x="25" y="50" width="1" height="1" fill="#000000" />
<rect x="26" y="50" width="1" height="1" fill="#000000" />
<rect x="27" y="50" width="1" height="1" fill="#000000" />
<rect x="36" y="50" width="1" height="1" fill="#000000" />
<rect x="37" y="50" width="1" height="1" fill="#000000" />
<rect x="38" y="50" width="1" height="1" fill="#000000" />
<rect x="39" y="50" width="1" height="1" fill="#63C446" />
<rect x="40" y="50" width="1" height="1" fill="#63C446" />
<rect x="41" y="50" width="1" height="1" fill="#63C446" />
<rect x="42" y="50" width="1" height="1" fill="#63C446" />
<rect x="43" y="50" width="1" height="1" fill="#63C446" />
<rect x="44" y="50" width="1" height="1" fill="#000000" />
<rect x="20" y="51" width="1" height="1" fill="#000000" />
<rect x="21" y="51" width="1" height="1" fill="#000000" />
<rect x="22" y="51" width="1" height="1" fill="#63C446" />
<rect x="23" y="51" width="1" height="1" fill="#63C446" />
<rect x="24" y="51" width="1" height="1" fill="#63C446" />
<rect x="25" y="51" width="1" height="1" fill="#63C446" />
<rect x="26" y="51" width="1" height="1" fill="#63C446" />
<rect x="27" y="51" width="1" height="1" fill="#63C446" />
<rect x="28" y="51" width="1" height="1" fill="#000000" />
<rect x="29" y="51" width="1" height="1" fill="#000000" />
<rect x="30" y="51" width="1" height="1" fill="#000000" />
<rect x="31" y="51" width="1" height="1" fill="#000000" />
<rect x="32" y="51" width="1" height="1" fill="#000000" />
<rect x="33" y="51" width="1" height="1" fill="#000000" />
<rect x="34" y="51" width="1" height="1" fill="#000000" />
<rect x="35" y="51" width="1" height="1" fill="#000000" />
<rect x="36" y="51" width="1" height="1" fill="#63C446" />
<rect x="37" y="51" width="1" height="1" fill="#63C446" />
<rect x="38" y="51" width="1" height="1" fill="#63C446" />
<rect x="39" y="51" width="1" height="1" fill="#63C446" />
<rect x="40" y="51" width="1" height="1" fill="#63C446" />
<rect x="41" y="51" width="1" height="1" fill="#63C446" />
<rect x="42" y="51" width="1" height="1" fill="#000000" />
<rect x="43" y="51" width="1" height="1" fill="#000000" />
<rect x="22" y="52" width="1" height="1" fill="#000000" />
<rect x="23" y="52" width="1" height="1" fill="#000000" />
<rect x="24" y="52" width="1" height="1" fill="#63C446" />
<rect x="25" y="52" width="1" height="1" fill="#63C446" />
<rect x="26" y="52" width="1" height="1" fill="#63C446" />
<rect x="27" y="52" width="1" height="1" fill="#63C446" />
<rect x="28" y="52" width="1" height="1" fill="#63C446" />
<rect x="29" y="52" width="1" height="1" fill="#63C446" />
<rect x="30" y="52" width="1" height="1" fill="#63C446" />
<rect x="31" y="52" width="1" height="1" fill="#63C446" />
<rect x="32" y="52" width="1" height="1" fill="#63C446" />
<rect x="33" y="52" width="1" height="1" fill="#63C446" />
<rect x="34" y="52" width="1" height="1" fill="#63C446" />
<rect x="35" y="52" width="1" height="1" fill="#63C446" />
<rect x="36" y="52" width="1" height="1" fill="#63C446" />
<rect x="37" y="52" width="1" height="1" fill="#63C446" />
<rect x="38" y="52" width="1" height="1" fill="#63C446" />
<rect x="39" y="52" width="1" height="1" fill="#63C446" />
<rect x="40" y="52" width="1" height="1" fill="#000000" />
<rect x="41" y="52" width="1" height="1" fill="#000000" />
<rect x="24" y="53" width="1" height="1" fill="#000000" />
<rect x="25" y="53" width="1" height="1" fill="#000000" />
<rect x="26" y="53" width="1" height="1" fill="#000000" />
<rect x="27" y="53" width="1" height="1" fill="#63C446" />
<rect x="28" y="53" width="1" height="1" fill="#63C446" />
<rect x="29" y="53" width="1" height="1" fill="#63C446" />
<rect x="30" y="53" width="1" height="1" fill="#63C446" />
<rect x="31" y="53" width="1" height="1" fill="#63C446" />
<rect x="32" y="53" width="1" height="1" fill="#63C446" />
<rect x="33" y="53" width="1" height="1" fill="#63C446" />
<rect x="34" y="53" width="1" height="1" fill="#63C446" />
<rect x="35" y="53" width="1" height="1" fill="#63C446" />
<rect x="36" y="53" width="1" height="1" fill="#63C446" />
<rect x="37" y="53" width="1" height="1" fill="#000000" />
<rect x="38" y="53" width="1" height="1" fill="#000000" />
<rect x="39" y="53" width="1" height="1" fill="#000000" />
<rect x="27" y="54" width="1" height="1" fill="#000000" />
<rect x="28" y="54" width="1" height="1" fill="#000000" />
<rect x="29" y="54" width="1" height="1" fill="#000000" />
<rect x="30" y="54" width="1" height="1" fill="#000000" />
<rect x="31" y="54" width="1" height="1" fill="#000000" />
<rect x="32" y="54" width="1" height="1" fill="#000000" />
<rect x="33" y="54" width="1" height="1" fill="#000000" />
<rect x="34" y="54" width="1" height="1" fill="#000000" />
<rect x="35" y="54" width="1" height="1" fill="#000000" />
<rect x="36" y="54" width="1" height="1" fill="#000000" />
</svg>